<svg width="20" height="20" viewBox="0 0 20 20" fill="none" xmlns="http://www.w3.org/2000/svg">
<g clip-path="url(#clip0_312_7390)">
<path fill-rule="evenodd" clip-rule="evenodd" d="M6.39522 18.3437C6.55422 18.3438 6.7067 18.2806 6.81913 18.1682L19.4828 5.50453C20.1729 4.81439 20.1719 3.69119 19.4821 3.00134L16.9983 0.517612C16.9983 0.517607 16.9983 0.517618 16.9983 0.517612C16.3085 -0.172243 15.1853 -0.17325 14.4952 0.516891C14.4952 0.516897 14.4952 0.516886 14.4952 0.516891L1.83154 13.1805C1.59742 13.4146 1.59741 13.7942 1.83153 14.0284L5.9713 18.1682C6.08373 18.2806 6.23622 18.3437 6.39522 18.3437ZM6.39522 16.8964L3.10328 13.6044L15.343 1.36472C15.5642 1.14353 15.9282 1.14314 16.1505 1.36541L18.6342 3.84917C18.8565 4.07145 18.8562 4.43547 18.635 4.6567C18.635 4.6567 18.635 4.65669 18.635 4.6567L6.39522 16.8964Z" fill="#F98347"/>
<path fill-rule="evenodd" clip-rule="evenodd" d="M0.175606 19.8244C0.329559 19.9783 0.554877 20.0367 0.764223 19.9769L6.55993 18.321C6.76418 18.2626 6.92229 18.1005 6.97558 17.8949C7.02886 17.6893 6.96935 17.4708 6.81915 17.3206L2.67938 13.1808C2.52918 13.0306 2.31071 12.9711 2.10509 13.0244C1.89946 13.0777 1.73738 13.2358 1.67903 13.4401L0.0230819 19.2358C-0.036732 19.4451 0.0216533 19.6704 0.175606 19.8244ZM1.47243 18.5276L2.552 14.7491L5.25087 17.448L1.47243 18.5276Z" fill="#F98347"/>
<path fill-rule="evenodd" clip-rule="evenodd" d="M17.8262 7.16035C18.0603 6.92622 18.0603 6.54664 17.8262 6.31251L13.6864 2.17271C13.4523 1.93859 13.0727 1.93859 12.8386 2.17271C12.6044 2.40683 12.6044 2.78642 12.8386 3.02054L16.9784 7.16035C17.2125 7.39447 17.5921 7.39447 17.8262 7.16035Z" fill="#F98347"/>
</g>
<defs>
<clipPath id="clip0_312_7390">
<rect width="20" height="20" fill="white"/>
</clipPath>
</defs>
</svg>
