<svg width="20" height="20" viewBox="0 0 20 20" fill="none" xmlns="http://www.w3.org/2000/svg">
<g clip-path="url(#clip0_312_7397)">
<path fill-rule="evenodd" clip-rule="evenodd" d="M4.20456 18.0308C4.29798 19.1516 5.23493 20.0137 6.3596 20.0137H13.6404C14.7651 20.0137 15.7021 19.1516 15.7955 18.0307L16.848 5.401C16.8619 5.23379 16.8052 5.06838 16.6916 4.94491C16.5779 4.82143 16.4178 4.75117 16.25 4.75117H3.75003C3.58224 4.75117 3.42211 4.82143 3.3085 4.94491C3.19488 5.06838 3.13816 5.23379 3.1521 5.401L4.20456 18.0308ZM5.40041 17.9311C5.40041 17.9311 5.40041 17.9311 5.40041 17.9311L4.40211 5.95117H15.5979L14.5996 17.9311C14.558 18.4299 14.141 18.8137 13.6404 18.8137H6.3596C5.85903 18.8137 5.442 18.43 5.40041 17.9311Z" fill="#B1AFAE"/>
<path fill-rule="evenodd" clip-rule="evenodd" d="M2.36877 5.35117C2.36877 5.68254 2.6374 5.95117 2.96877 5.95117H17.0313C17.3626 5.95117 17.6313 5.68254 17.6313 5.35117V4.1793C17.6313 3.20074 16.838 2.40742 15.8594 2.40742H4.14065C3.16209 2.40742 2.36877 3.20074 2.36877 4.1793V5.35117ZM3.56877 4.75117V4.1793C3.56877 3.86348 3.82483 3.60742 4.14065 3.60742H15.8594C16.1752 3.60742 16.4313 3.86348 16.4313 4.1793V4.75117H3.56877Z" fill="#B1AFAE"/>
<path fill-rule="evenodd" clip-rule="evenodd" d="M6.66565 3.00742C6.66565 3.33879 6.93428 3.60742 7.26565 3.60742H12.7344C13.0658 3.60742 13.3344 3.33879 13.3344 3.00742V1.75742C13.3344 0.778863 12.5411 -0.0144529 11.5625 -0.0144529H8.43752C7.45897 -0.0144529 6.66565 0.778863 6.66565 1.75742V3.00742ZM7.86565 2.40742V1.75742C7.86565 1.44161 8.12171 1.18555 8.43752 1.18555H11.5625C11.8783 1.18555 12.1344 1.44161 12.1344 1.75742V2.40742H7.86565Z" fill="#B1AFAE"/>
<path fill-rule="evenodd" clip-rule="evenodd" d="M10 16.8887C10.3314 16.8887 10.6 16.62 10.6 16.2887V8.47617C10.6 8.1448 10.3314 7.87617 10 7.87617C9.66865 7.87617 9.40002 8.1448 9.40002 8.47617V16.2887C9.40002 16.62 9.66865 16.8887 10 16.8887Z" fill="#B1AFAE"/>
<path fill-rule="evenodd" clip-rule="evenodd" d="M12.4942 16.887C12.8246 16.9117 13.1126 16.664 13.1374 16.3335L13.7233 8.52102C13.7481 8.19058 13.5003 7.90261 13.1699 7.87782C12.8394 7.85304 12.5515 8.10083 12.5267 8.43127L11.9407 16.2438C11.916 16.5742 12.1637 16.8622 12.4942 16.887Z" fill="#B1AFAE"/>
<path fill-rule="evenodd" clip-rule="evenodd" d="M7.5058 16.887C7.83625 16.8622 8.08403 16.5742 8.05925 16.2438L7.47331 8.43127C7.44853 8.10083 7.16056 7.85304 6.83012 7.87782C6.49967 7.90261 6.25189 8.19058 6.27667 8.52102L6.86261 16.3335C6.88739 16.664 7.17536 16.9117 7.5058 16.887Z" fill="#B1AFAE"/>
</g>
<defs>
<clipPath id="clip0_312_7397">
<rect width="20" height="20" fill="white"/>
</clipPath>
</defs>
</svg>
