<svg width="44" height="44" viewBox="0 0 44 44" fill="none" xmlns="http://www.w3.org/2000/svg">
<g clip-path="url(#clip0_2847_46554)">
<g clip-path="url(#clip1_2847_46554)">
<rect width="44" height="44" rx="22" fill="#BA9BF3"/>
<path d="M29.1175 23.1607C28.7397 23.7251 27.8793 24.72 26.8256 25.2181C26.8326 25.5159 26.8583 25.8133 26.9025 26.109C26.9025 26.109 26.8469 27.9342 23.9162 27.9342C20.9855 27.9342 20.9206 26.0977 20.9206 26.0977C20.963 25.795 20.9892 25.457 20.9973 25.1905C20.4857 24.9386 20.0308 24.6198 19.6515 24.2476C19.1254 23.7327 18.7417 23.1349 18.5254 22.4933L18.3033 22.4661C18.0536 22.4329 17.819 22.3485 17.6224 22.2212C17.3803 22.057 17.1855 21.8529 17.0514 21.6231C16.7667 21.1683 16.6441 20.6598 16.6971 20.1532C16.7044 20.0237 16.7456 19.8969 16.8182 19.7809C16.881 19.6968 16.9667 19.625 17.0689 19.5708C17.1711 19.5166 17.2872 19.4814 17.4088 19.4678C17.5324 19.4533 17.6585 19.4603 17.7784 19.4883C17.8983 19.5163 18.0093 19.5647 18.1037 19.63C18.1037 19.63 17.2777 15.6191 23.8567 15.6191C30.107 15.6191 29.7595 19.63 29.7595 19.63C29.8539 19.5646 29.9648 19.5163 30.0847 19.4883C30.2047 19.4603 30.3308 19.4533 30.4544 19.4678C30.5757 19.4814 30.6917 19.5166 30.7937 19.5708C30.8958 19.6249 30.9813 19.6966 31.044 19.7806C31.1167 19.8965 31.1579 20.0234 31.1652 20.1528C31.2181 20.6595 31.0956 21.168 30.8109 21.6228C30.6767 21.8526 30.4819 22.0566 30.2398 22.2208C30.0433 22.3481 29.8086 22.4325 29.5589 22.4658C29.5589 22.4658 29.5166 22.471 29.4422 22.4807C29.3864 22.6474 29.3237 22.7878 29.2929 22.8623C29.2425 22.9647 29.1839 23.0643 29.1175 23.1607Z" fill="white"/>
<path d="M28.8036 14.3846C29.6967 14.7759 30.1377 15.4532 30.4255 16.0401C30.847 16.8995 30.962 18.3455 30.52 19.478C30.4981 19.4739 30.4758 19.4705 30.4534 19.4678C30.3298 19.4534 30.2037 19.4604 30.0837 19.4884C29.9638 19.5164 29.8529 19.5647 29.7585 19.6301L29.1049 19.0624C28.9582 18.7702 28.8487 18.5375 28.702 18.2454C28.5837 17.9904 28.4436 17.7422 28.2828 17.5025C28.1436 17.3212 27.86 17.3689 27.6002 17.3324C26.7571 17.2138 26.9349 17.0657 26.3091 16.6328C25.4605 17.3621 24.5571 17.6623 23.3961 17.9522C22.7713 18.1082 21.6446 18.2582 20.8751 18.2379C20.1025 18.5947 18.9723 18.8736 18.2783 19.0471L18.1025 19.6301C18.0082 19.5649 17.8974 19.5166 17.7776 19.4887C17.6578 19.4607 17.5319 19.4536 17.4085 19.468C17.3833 19.4709 17.3584 19.475 17.3339 19.4802L17.2601 19.3249C16.8261 18.4112 16.8491 16.9326 17.1964 15.8939C17.5538 14.8254 18.3928 13.7886 19.5821 13.3554L20.6483 12.7737C21.6869 12.0568 24.7764 12.1082 25.8362 12.4103C26.8474 12.6985 27.6167 13.2094 27.9847 13.806L28.8036 14.3846Z" fill="#7A7473"/>
<path d="M21.1627 26.0974C21.2046 25.796 21.2299 25.4928 21.2394 25.1897C21.2388 25.1385 21.2131 25.0896 21.1678 25.0534C21.1225 25.0173 21.0612 24.9968 20.9972 24.9963C20.9333 24.9973 20.8724 25.018 20.8272 25.054C20.7821 25.0901 20.7561 25.1387 20.7549 25.1897C20.7454 25.4928 20.7201 25.796 20.6782 26.0974C20.6784 26.1487 20.704 26.1978 20.7493 26.234C20.7947 26.2702 20.8563 26.2906 20.9205 26.2908C20.9841 26.2894 21.0447 26.2685 21.0898 26.2326C21.1349 26.1966 21.1609 26.1483 21.1627 26.0974Z" fill="#211715"/>
<path d="M26.583 25.2255C26.59 25.5209 26.6157 25.8158 26.6598 26.1091C26.6614 26.16 26.6874 26.2084 26.7325 26.2444C26.7776 26.2804 26.8383 26.3012 26.9021 26.3024C27.0204 26.2981 27.1602 26.2166 27.1443 26.1091C27.1001 25.8158 27.0745 25.5209 27.0675 25.2255C27.0675 25.1743 27.042 25.1251 26.9965 25.0888C26.9511 25.0526 26.8895 25.0322 26.8252 25.0322C26.761 25.0322 26.6994 25.0526 26.654 25.0888C26.6085 25.1251 26.583 25.1743 26.583 25.2255Z" fill="#211715"/>
<path d="M21.1733 43.807H15.7684V43.8046C15.7684 42.3177 15.7684 41.1277 15.7684 40.2562L13.1353 31.3053C13.2934 30.4641 13.7323 29.6843 14.1345 29.4861C14.4157 29.3012 14.7162 29.1358 15.0328 28.9916C16.6634 28.2839 18.0846 27.6908 19.9155 27.0776C20.1494 26.7006 20.464 26.3591 20.8453 26.0686C21.6064 26.6762 22.4965 27.1712 23.4741 27.5308C23.5285 27.5505 23.5893 27.5745 23.6067 27.6201C23.6154 27.6613 23.6046 27.7035 23.5765 27.7386H24.2955C24.2674 27.7035 24.2566 27.6613 24.2652 27.6201C24.2828 27.5745 24.3435 27.5505 24.3979 27.5308C25.3756 27.1712 26.2657 26.6762 27.0268 26.0686C27.3754 26.3328 27.6677 26.6407 27.8921 26.98C30.0312 27.6668 31.5827 28.3109 33.392 29.0962C33.7033 29.2313 34.2723 29.4264 34.6499 29.9358C35.3712 30.6886 37.5109 36.0143 37.6829 37.2866C37.7875 38.023 37.7816 38.7668 37.6653 39.5022C37.2058 41.3911 34.5567 40.9813 33.7551 40.9597C33.2578 40.9248 32.7639 40.8642 32.2764 40.7785C32.2764 41.5832 32.2764 42.5968 32.2764 43.8071L21.1733 43.807Z" fill="#65A0D4"/>
<path d="M32.5174 43.8045C32.5174 42.7959 32.5178 41.7871 32.5184 40.7783C32.5184 40.5295 32.034 40.5291 32.034 40.7783C32.0328 41.7871 32.0324 42.7958 32.033 43.8045C32.033 44.0534 32.5174 44.0538 32.5174 43.8045Z" fill="#211715"/>
<path d="M16.0108 43.8047C16.0108 42.6219 16.0108 41.4391 16.0108 40.2563C16.0108 40.0075 15.5264 40.0071 15.5264 40.2563C15.5264 41.4391 15.5264 42.6219 15.5264 43.8047C15.5264 44.0535 16.0108 44.0539 16.0108 43.8047Z" fill="#211715"/>
<path d="M23.7095 27.7709C23.7101 29.094 23.7387 30.4174 23.7561 31.7403C23.7644 32.3665 23.7728 32.9928 23.7814 33.619C23.7849 33.8677 24.2693 33.8687 24.2659 33.619C24.2414 31.8416 24.2189 30.0641 24.1983 28.2867C24.1965 28.1148 24.194 27.9429 24.1939 27.7712C24.1939 27.5224 23.7095 27.522 23.7095 27.7712V27.7709Z" fill="#211715"/>
<path d="M23.7671 39.871C23.7671 40.915 23.7764 41.959 23.78 43.003C23.781 43.2579 23.7816 43.5127 23.7818 43.7676C23.7818 44.0164 24.2663 44.0168 24.2663 43.7676C24.2663 42.6413 24.2582 41.515 24.2534 40.3887C24.2527 40.2162 24.2516 40.0436 24.2516 39.871C24.2516 39.6223 23.7671 39.6219 23.7671 39.871Z" fill="#211715"/>
<path d="M15.7687 44.0004H32.2791C32.5909 44.0004 32.5914 43.6138 32.2791 43.6138H15.7687C15.4569 43.6138 15.4564 44.0004 15.7687 44.0004Z" fill="#211715"/>
<path d="M27.9457 27.2043C28.934 27.5247 29.9061 27.8747 30.8619 28.2542C31.7292 28.5983 32.5767 28.9711 33.4331 29.332C33.841 29.5039 34.1977 29.7132 34.4404 30.0333C34.6019 30.2459 35.0206 30.0518 34.8586 29.8381C34.6115 29.5201 34.2663 29.2579 33.856 29.0766C33.4745 28.9018 33.0806 28.7415 32.6925 28.5761C31.7649 28.1805 30.8275 27.7995 29.8712 27.4498C29.2781 27.2329 28.6791 27.027 28.0739 26.8319C28.012 26.8186 27.946 26.8253 27.8902 26.8506C27.8345 26.8758 27.7934 26.9176 27.776 26.9669C27.7605 27.0163 27.7694 27.0685 27.8009 27.1128C27.8324 27.1571 27.8841 27.19 27.9452 27.2047L27.9457 27.2043Z" fill="#211715"/>
<path d="M33.2761 30.9527C33.1165 31.7487 32.9194 32.5395 32.7526 33.3344C32.6026 34.049 32.4876 34.7667 32.4077 35.4873C32.358 35.9394 32.3147 36.392 32.2734 36.8446C32.274 36.8958 32.2997 36.9447 32.345 36.9808C32.3903 37.017 32.4516 37.0375 32.5157 37.038C32.5795 37.037 32.6404 37.0163 32.6856 36.9803C32.7308 36.9442 32.7567 36.8956 32.7579 36.8446C32.8233 36.1278 32.8868 35.4089 32.99 34.694C33.103 33.9111 33.282 33.135 33.4584 32.3599C33.5573 31.9256 33.656 31.4912 33.7433 31.055C33.7584 31.0056 33.7494 30.9535 33.7179 30.9093C33.6865 30.8651 33.635 30.8321 33.5741 30.8172C33.5122 30.8039 33.4463 30.8107 33.3905 30.836C33.3348 30.8612 33.2937 30.903 33.2762 30.9522L33.2761 30.9527Z" fill="#211715"/>
<path d="M20.0296 26.8317C18.8268 27.2302 17.648 27.6697 16.4933 28.1504C15.9356 28.3814 15.3729 28.6107 14.8285 28.8611C14.5391 29.0024 14.2613 29.1581 13.9966 29.3275C13.8267 29.4303 13.6818 29.5569 13.5688 29.7012C13.2011 30.1603 13.0047 30.7202 12.9016 31.254C12.8866 31.3033 12.8957 31.3554 12.9271 31.3996C12.9586 31.4438 13.0099 31.4768 13.0708 31.4917C13.1327 31.505 13.1987 31.4983 13.2545 31.473C13.3102 31.4477 13.3513 31.406 13.3687 31.3567C13.4461 30.8872 13.6262 30.4322 13.9008 30.0124C13.9519 29.9362 14.0102 29.8633 14.0754 29.7942C14.0879 29.7814 14.1226 29.7495 14.1446 29.7309C14.1591 29.7188 14.1741 29.7068 14.1894 29.6953C14.1964 29.6902 14.257 29.6493 14.2208 29.6721C14.4664 29.5134 14.724 29.3668 14.9921 29.2332C15.5063 28.9842 16.0528 28.7697 16.5856 28.5475C17.1184 28.3253 17.6572 28.1084 18.2005 27.9013C18.8455 27.6556 19.4981 27.4233 20.1586 27.2044C20.2194 27.1894 20.2707 27.1565 20.3022 27.1123C20.3336 27.0681 20.3427 27.016 20.3277 26.9667C20.3103 26.9174 20.2693 26.8756 20.2135 26.8503C20.1577 26.825 20.0917 26.8183 20.0298 26.8317H20.0296Z" fill="#211715"/>
<path d="M25.9216 29.347C26.7658 28.6775 27.3187 27.8665 27.9423 27.0565C27.7103 26.6876 27.4004 26.3534 27.0262 26.0686C26.2651 26.6762 25.375 27.1712 24.3973 27.5308C24.3429 27.5505 24.2822 27.5745 24.2646 27.6201C24.256 27.6613 24.2668 27.7035 24.2949 27.7386C24.4638 27.9328 24.6453 28.1198 24.8387 28.2989C25.2087 28.6602 25.6732 29.1029 25.9216 29.347Z" fill="white"/>
<path d="M21.949 29.347C21.1048 28.6775 20.5519 27.8665 19.9282 27.0565C20.1602 26.6876 20.4701 26.3534 20.8444 26.0686C21.6055 26.6762 22.4956 27.1712 23.4732 27.5308C23.5276 27.5505 23.5884 27.5745 23.6058 27.6201C23.6145 27.6613 23.6037 27.7035 23.5756 27.7386C23.4066 27.9328 23.2251 28.1198 23.0318 28.2989C22.6618 28.6602 22.1974 29.1029 21.949 29.347Z" fill="white"/>
<path d="M26.0926 29.4837C26.7324 28.9727 27.2288 28.3664 27.6974 27.7519C27.8139 27.5988 27.9295 27.4454 28.0457 27.2927C28.1114 27.2065 28.2133 27.1135 28.1761 27.0053C28.1367 26.9221 28.0847 26.8431 28.0213 26.7699C27.7994 26.4601 27.5219 26.1779 27.1977 25.9322C27.1517 25.8968 27.0903 25.877 27.0264 25.877C26.9625 25.877 26.9011 25.8968 26.8551 25.9322C26.2094 26.4491 25.4668 26.8826 24.654 27.2173C24.5598 27.2561 24.465 27.2934 24.3697 27.3293C24.2618 27.3588 24.1654 27.4102 24.0899 27.4784C23.9688 27.6121 24.0255 27.7735 24.1359 27.8981C24.3721 28.1648 24.6437 28.4137 24.9039 28.6654C25.1859 28.9383 25.4708 29.2095 25.7505 29.484C25.7962 29.5199 25.8577 29.54 25.9218 29.54C25.9859 29.54 26.0474 29.5199 26.0931 29.484C26.1372 29.4472 26.1618 29.3982 26.1618 29.3473C26.1618 29.2964 26.1372 29.2474 26.0931 29.2106C25.8045 28.9273 25.5104 28.6476 25.2195 28.366C25.058 28.2096 24.8965 28.0531 24.7388 27.8946C24.6832 27.8389 24.6278 27.783 24.5747 27.7254C24.5459 27.694 24.5012 27.6569 24.5071 27.6203L24.4736 27.7176L24.4543 27.7245C24.4699 27.7168 24.4861 27.7099 24.5028 27.7039C24.5331 27.6919 24.5643 27.6813 24.5949 27.6699C24.652 27.6485 24.7088 27.6266 24.7653 27.6045C24.8871 27.5561 25.0073 27.5056 25.1261 27.453C25.3774 27.3415 25.6217 27.2207 25.859 27.0906C26.3389 26.8296 26.7869 26.5332 27.1973 26.2053H26.8546C27.2128 26.4794 27.5098 26.8003 27.7327 27.1541V26.9589C27.1309 27.7418 26.5702 28.5553 25.7499 29.2104C25.5294 29.3864 25.8718 29.66 26.0926 29.4837Z" fill="#211715"/>
<path d="M22.1203 29.2103C21.3 28.5552 20.7393 27.7417 20.1375 26.9589V27.154C20.3604 26.8002 20.6574 26.4794 21.0156 26.2053H20.673C21.0834 26.5331 21.5314 26.8295 22.0113 27.0905C22.2425 27.2169 22.4805 27.3351 22.7253 27.4449C22.8439 27.498 22.9642 27.5488 23.0861 27.5973C23.1487 27.6223 23.2118 27.6466 23.2754 27.6703C23.3006 27.6796 23.3259 27.6884 23.3509 27.698C23.3678 27.7036 23.3842 27.7102 23.4 27.7176C23.4225 27.7271 23.4214 27.7273 23.3966 27.7176L23.3633 27.6201C23.3754 27.694 23.2005 27.8253 23.1443 27.8817C22.9821 28.0445 22.8167 28.2052 22.651 28.3657C22.3601 28.6476 22.0656 28.927 21.7774 29.2103C21.7337 29.2472 21.7093 29.2962 21.7093 29.347C21.7093 29.3978 21.7337 29.4467 21.7774 29.4837C21.8231 29.5196 21.8846 29.5397 21.9487 29.5397C22.0128 29.5397 22.0743 29.5196 22.12 29.4837C22.6367 28.9762 23.1797 28.4849 23.6743 27.9632C23.7794 27.8736 23.8417 27.7575 23.8504 27.6351C23.8427 27.421 23.5684 27.3566 23.3685 27.2782C22.9623 27.1178 22.5719 26.9333 22.2005 26.7261C21.7762 26.4905 21.3796 26.2247 21.0156 25.9319C20.9696 25.8965 20.9082 25.8767 20.8443 25.8767C20.7804 25.8767 20.719 25.8965 20.673 25.9319C20.3538 26.1736 20.08 26.4509 19.86 26.7551C19.7922 26.8326 19.7367 26.9164 19.6946 27.0048C19.6588 27.1085 19.7501 27.194 19.8133 27.2768C19.9338 27.4348 20.0529 27.5935 20.1733 27.752C20.6414 28.3665 21.1378 28.9728 21.7776 29.4838C21.9983 29.6599 22.341 29.3865 22.1203 29.2103Z" fill="#211715"/>
<path d="M6.26182 31.3023C6.28852 31.2426 6.33835 31.1913 6.40406 31.1558C6.46978 31.1203 6.54797 31.1024 6.6273 31.1047C9.51009 31.186 17.8561 31.5137 20.0814 31.6013C20.2057 31.6062 20.3241 31.6449 20.4169 31.711C20.5097 31.7772 20.5713 31.8667 20.5914 31.9646C20.9218 33.5635 22.1307 39.1163 22.4511 40.5597L22.4782 40.6823C22.4198 40.7076 22.3591 40.7293 22.2965 40.7471C22.1229 40.7906 21.9414 40.8105 21.7595 40.8059C17.125 40.5932 13.0772 40.2569 8.46979 40.0391C8.34037 40.0332 8.21729 39.9925 8.12065 39.9235C8.02402 39.8545 7.95955 39.7615 7.93778 39.6595C7.55778 37.8633 6.58006 33.1283 6.24507 31.4494C6.23498 31.4 6.24074 31.3494 6.26182 31.3023Z" fill="#C6C6C6"/>
<path d="M22.1402 39.1462C22.0476 38.7232 21.9438 38.2471 21.8345 37.7446L22.0041 37.7722L22.8225 37.905C23.2969 37.9889 25.1897 38.3802 25.9281 38.5947L25.7217 38.7279C24.7797 39.3365 23.0564 40.3717 22.649 40.5985C22.5944 40.6293 22.5372 40.6572 22.478 40.682L22.4509 40.5597C22.3822 40.2507 22.2729 39.753 22.1402 39.1462Z" fill="#C6C6C6"/>
<path d="M22.8514 37.9087C23.3265 37.9927 25.2251 38.3854 25.9608 38.5995C26.1844 38.0284 26.5051 37.217 26.7379 36.61C26.4236 36.5264 26.1074 36.448 25.7892 36.375L24.9055 35.1537C24.7519 34.9414 24.5868 34.7196 24.3212 34.5962C24.0609 34.4754 23.7448 34.4679 23.4436 34.4637C23.0045 34.4432 22.5639 34.454 22.1272 34.4959L21.1387 34.593L21.8461 37.7646L22.8514 37.9087Z" fill="white"/>
<path d="M25.9961 38.4095C25.3893 38.234 24.7597 38.1035 24.1366 37.9709C23.6769 37.8728 23.2161 37.7721 22.7495 37.6964L22.0684 37.5858C22.0065 37.5734 21.941 37.5805 21.8855 37.6057C21.83 37.6308 21.7888 37.6721 21.7704 37.7208C21.754 37.7703 21.7625 37.8229 21.7941 37.8673C21.8257 37.9118 21.878 37.9446 21.9396 37.9586C22.9388 38.1208 23.9223 38.3161 24.9023 38.5411C25.226 38.6153 25.5505 38.6907 25.8673 38.7827C25.9292 38.7959 25.9952 38.7891 26.0509 38.7639C26.1067 38.7386 26.1478 38.6969 26.1653 38.6477C26.1811 38.5983 26.1722 38.546 26.1407 38.5016C26.1091 38.4573 26.0573 38.4245 25.9961 38.4099V38.4095Z" fill="#211715"/>
<path d="M26.8019 36.4423C26.4768 36.3543 26.1537 36.2617 25.824 36.1854L25.9687 36.274L25.2811 35.3243C25.0833 35.0509 24.9008 34.7363 24.5924 34.529C24.2564 34.3035 23.8355 34.2736 23.4137 34.2672C22.9975 34.2529 22.5806 34.2624 22.1661 34.2954C22.1024 34.297 22.0419 34.3178 21.9969 34.3537C21.9519 34.3897 21.9257 34.438 21.9238 34.4888C21.9242 34.5399 21.9499 34.5889 21.9952 34.6251C22.0406 34.6613 22.1019 34.6818 22.1661 34.6821C22.5437 34.6504 22.9238 34.6403 23.3033 34.652C23.6179 34.6572 23.9869 34.6385 24.2499 34.8024C24.5249 34.9738 24.6804 35.2673 24.8505 35.5025L25.4642 36.3506C25.5327 36.4454 25.5803 36.527 25.7182 36.5636C25.8226 36.5913 25.9291 36.6143 26.0336 36.6415C26.2475 36.6973 26.4596 36.7575 26.6727 36.8151C26.9687 36.8952 27.0956 36.5218 26.8015 36.4423H26.8019Z" fill="#211715"/>
<path d="M22.394 40.8247C22.7613 40.5862 22.6086 40.1662 22.5393 39.8511C22.4788 39.5738 22.418 39.2965 22.3571 39.0192C22.2055 38.3261 22.0544 37.633 21.9039 36.94C21.6005 35.5438 21.2994 34.147 21.0005 32.7498C20.9512 32.5175 20.9022 32.2851 20.8536 32.0527C20.8375 31.8914 20.761 31.7378 20.6342 31.6116C20.5524 31.5447 20.4544 31.4919 20.3462 31.4564C20.2379 31.4208 20.1217 31.4033 20.0047 31.4049C19.4327 31.3825 18.8608 31.3601 18.2888 31.3377C16.5447 31.2697 14.8005 31.2025 13.0562 31.1363C11.3258 31.0712 9.59524 31.0089 7.86448 30.9494C7.55018 30.9391 7.23581 30.9291 6.92138 30.9195C6.75201 30.9011 6.57986 30.9074 6.41329 30.938C6.27338 30.9781 6.15599 31.0567 6.08224 31.1597C6.00849 31.2627 5.98322 31.3834 6.01098 31.4999C6.11443 32.057 6.23555 32.6122 6.3493 33.1677C6.65613 34.6698 6.96565 36.1715 7.27787 37.6728C7.40571 38.2887 7.53433 38.9046 7.66373 39.5203C7.69784 39.6823 7.72328 39.837 7.85216 39.9726C8.04646 40.1771 8.31402 40.2249 8.61924 40.2396C9.32064 40.2732 10.0217 40.3098 10.7225 40.3495C13.452 40.503 16.1779 40.695 18.9071 40.8511C19.6052 40.891 20.3035 40.9284 21.002 40.9631C21.3284 40.9792 21.6681 41.019 21.9944 40.9914C22.2813 40.969 22.5559 40.8873 22.7911 40.7543C23.4684 40.3757 24.1218 39.9675 24.7764 39.5648C25.1511 39.3341 25.5249 39.1022 25.893 38.8646C25.938 38.8282 25.9633 38.7791 25.9633 38.7279C25.9633 38.6767 25.938 38.6276 25.893 38.5912C25.8468 38.556 25.7855 38.5364 25.7217 38.5364C25.6579 38.5364 25.5966 38.556 25.5504 38.5912C24.8159 39.0652 24.0633 39.5218 23.3073 39.9737C23.0539 40.1253 22.8013 40.2786 22.5415 40.4233C22.3447 40.5392 22.1088 40.6051 21.8644 40.6124C21.5386 40.6221 21.2036 40.5866 20.8783 40.5704C18.2054 40.4371 15.5369 40.2549 12.8669 40.09C11.5179 40.0067 10.1683 39.9284 8.81777 39.8625C8.60117 39.852 8.30605 39.8823 8.19957 39.6903C8.15337 39.5742 8.12443 39.4542 8.11337 39.3327C8.05544 39.0575 7.99777 38.7823 7.94038 38.507C7.639 37.0631 7.34014 35.6188 7.04381 34.1741C6.90869 33.5172 6.77439 32.8601 6.64089 32.203C6.59123 31.9586 6.54191 31.7143 6.49293 31.47C6.49071 31.4592 6.48283 31.4006 6.48283 31.4217C6.47875 31.3945 6.48637 31.367 6.50443 31.3437C6.54723 31.2943 6.61071 31.2979 6.67914 31.2998C6.81298 31.3036 6.94685 31.3076 7.08075 31.3118C8.63589 31.3595 10.1905 31.4173 11.7452 31.4748C13.5358 31.5407 15.3261 31.6086 17.1159 31.6784C17.809 31.7053 18.5017 31.7323 19.1942 31.7595L19.9389 31.7888C20.0717 31.794 20.2044 31.7941 20.294 31.8873C20.3748 31.9714 20.3762 32.108 20.3976 32.2103C20.654 33.4366 20.9203 34.6616 21.1857 35.8868C21.4731 37.2137 21.7622 38.5405 22.0529 39.8669C22.0769 39.9765 22.101 40.0862 22.1251 40.1958C22.1515 40.3155 22.1851 40.464 22.051 40.551C22.006 40.5875 21.9808 40.6366 21.9808 40.6877C21.9808 40.7389 22.006 40.788 22.051 40.8244C22.0972 40.8597 22.1587 40.8794 22.2226 40.8794C22.2866 40.8794 22.348 40.8597 22.3942 40.8244L22.394 40.8247Z" fill="#211715"/>
<path d="M11.5196 37.8865C11.4644 37.679 11.2501 37.4495 10.8965 37.5009C10.6751 37.5331 10.5313 37.6823 10.5146 37.8956C10.4922 38.182 10.5696 38.5057 10.6978 39.0322C10.7962 39.436 10.9221 39.9034 11.053 40.2853C11.2627 40.6748 11.5677 40.9307 12.0173 40.9833C12.2929 41.0216 14.0136 41.1533 14.7874 41.1265C15.4535 41.0725 16.4542 41.0789 16.4471 40.5055C16.1986 40.4469 15.979 40.3363 15.8827 40.3234C15.8492 40.2578 15.8222 40.1903 15.802 40.1213C15.6969 39.7688 15.4223 39.1254 15.1523 38.9821C14.9356 38.8671 14.5649 38.8653 14.4558 39.0963C14.4558 39.0963 14.4256 39.1613 14.3782 39.2612C14.3463 39.1622 14.3139 39.0592 14.2811 38.9498C14.1646 38.5777 14.0231 38.2109 13.8572 37.8508C13.8249 37.7664 13.7671 37.6896 13.6889 37.6271C13.6107 37.5647 13.5144 37.5186 13.4086 37.4929C13.1764 37.428 12.8291 37.5466 12.7918 37.7793L12.7508 38.0344L12.6218 37.5761C12.4773 37.0624 12.0714 36.9227 11.775 37.0066C11.4419 37.1009 11.3713 37.3852 11.4984 37.8031" fill="white"/>
<path d="M14.6892 39.1477C14.669 39.1859 14.7262 39.0914 14.7013 39.1364C14.7223 39.1213 14.7226 39.1203 14.7022 39.1318C14.714 39.125 14.7264 39.1189 14.7392 39.1133C14.7645 39.1034 14.7652 39.1029 14.7414 39.1119C14.7554 39.1081 14.7695 39.1049 14.7838 39.1022C14.8123 39.098 14.8129 39.0976 14.7858 39.1009C14.8008 39.0999 14.816 39.0993 14.831 39.0993C14.8459 39.0993 14.8613 39.0999 14.8765 39.1009C14.8501 39.0972 14.8514 39.0975 14.8802 39.1015C14.9105 39.1072 14.9392 39.1131 14.9682 39.1211C14.9243 39.109 15.002 39.1356 15.0112 39.1398C15.0431 39.1543 15.0434 39.1633 15.0181 39.1419C15.0879 39.1966 15.1454 39.2604 15.1881 39.3307C15.2488 39.42 15.3017 39.5125 15.3465 39.6077C15.4469 39.8152 15.5128 40.0277 15.5904 40.2405C15.6091 40.303 15.637 40.3634 15.6733 40.4207C15.7096 40.4662 15.7665 40.4989 15.8322 40.5119C15.8407 40.5143 15.9116 40.5351 15.8667 40.52C16.0319 40.5751 16.1891 40.6417 16.3601 40.6861C16.6573 40.7631 16.7846 40.39 16.4889 40.3132C16.3058 40.2657 16.1346 40.1682 15.9469 40.1366L16.1161 40.2716C16.019 40.0751 15.9718 39.8636 15.8859 39.6634C15.8027 39.4503 15.6888 39.2456 15.5464 39.0535C15.4864 38.9671 15.4029 38.8925 15.302 38.8352C15.2011 38.7779 15.0855 38.7394 14.9635 38.7224C14.8121 38.6972 14.6543 38.7157 14.5184 38.7747C14.3825 38.8338 14.2774 38.9294 14.2218 39.0446C14.2051 39.0941 14.2135 39.1468 14.2452 39.1913C14.2769 39.2358 14.3293 39.2686 14.391 39.2825C14.4529 39.2948 14.5184 39.2877 14.5739 39.2625C14.6293 39.2374 14.6705 39.1962 14.689 39.1474L14.6892 39.1477Z" fill="#211715"/>
<path d="M14.8488 39.9385C14.6378 39.2618 14.4361 38.578 14.1446 37.92C14.0948 37.7822 14.0153 37.6525 13.9099 37.5364C13.7838 37.4152 13.6114 37.3303 13.419 37.2948C13.0505 37.2303 12.6229 37.4204 12.5575 37.7276C12.5423 37.777 12.5514 37.8292 12.5828 37.8734C12.6143 37.9176 12.6657 37.9505 12.7267 37.9654C12.7886 37.9786 12.8545 37.9719 12.9103 37.9466C12.966 37.9214 13.0071 37.8796 13.0246 37.8304C13.065 37.6407 13.3159 37.6364 13.4806 37.7368C13.5594 37.7931 13.6162 37.8663 13.6439 37.9478C13.699 38.0686 13.7508 38.1905 13.8004 38.3129C14.0298 38.8793 14.2016 39.4635 14.3817 40.041C14.457 40.2826 14.9243 40.1801 14.8488 39.9382V39.9385Z" fill="#211715"/>
<path d="M13.578 39.9296C13.3776 39.2725 13.1767 38.6155 12.9812 37.9575C12.8994 37.6823 12.8536 37.3683 12.6536 37.1292C12.4492 36.8851 12.0804 36.7184 11.71 36.8202C11.149 36.9743 11.1502 37.4668 11.2642 37.8545C11.3353 38.0967 11.8027 37.9941 11.7313 37.7517C11.6779 37.6133 11.6675 37.4665 11.701 37.3241C11.7103 37.2879 11.7332 37.2548 11.7666 37.2293C11.8001 37.2038 11.8426 37.1871 11.8883 37.1814C11.8958 37.1795 11.9388 37.1742 11.907 37.1775C11.8752 37.1808 11.919 37.1775 11.9272 37.1775C11.9412 37.178 11.9555 37.1775 11.9695 37.178C12.0069 37.1786 11.9317 37.1715 11.9695 37.1774C12.022 37.1808 12.072 37.1968 12.113 37.2231C12.223 37.2959 12.3038 37.3928 12.3452 37.502C12.436 37.7194 12.4832 37.9543 12.5498 38.1774C12.6383 38.4738 12.7276 38.77 12.8177 39.0661C12.9154 39.3883 13.0134 39.7105 13.1117 40.0327C13.1855 40.2744 13.6528 40.172 13.5789 39.93L13.578 39.9296Z" fill="#211715"/>
<path d="M10.8436 40.3828C11.0546 40.7668 11.4198 41.1013 11.9613 41.1709C12.2963 41.2138 12.6376 41.2345 12.9751 41.2571C13.8774 41.3178 14.7865 41.3671 15.6842 41.2421C16.1839 41.1725 16.6722 40.9707 16.6892 40.5179C16.6986 40.269 16.2141 40.2693 16.2048 40.5179C16.206 40.5634 16.1918 40.6082 16.1637 40.6478C16.1356 40.6873 16.0947 40.7201 16.0452 40.7426C15.8929 40.8081 15.7269 40.851 15.5554 40.869C15.1867 40.9182 14.8133 40.9405 14.4396 40.9359C13.6644 40.9225 12.8905 40.8777 12.121 40.8017C12.0867 40.7986 12.1765 40.8091 12.1094 40.8002C12.067 40.7946 12.0247 40.7895 11.9829 40.7814C11.878 40.7617 11.7792 40.7255 11.6921 40.6748C11.498 40.5451 11.3496 40.3771 11.2618 40.1876C11.229 40.1436 11.1759 40.1116 11.1139 40.0987C11.0518 40.0857 10.9859 40.0927 10.9303 40.1182C10.8761 40.145 10.8368 40.1874 10.8206 40.2366C10.8045 40.2859 10.8126 40.3382 10.8434 40.3828H10.8436Z" fill="#211715"/>
<path d="M12.3671 39.8281C12.246 39.4528 12.1273 39.0769 12.0112 38.7004C11.9553 38.5197 11.9002 38.3389 11.8461 38.1581C11.8078 38.0296 11.7835 37.8928 11.7302 37.7677C11.6932 37.6697 11.6289 37.5796 11.5423 37.5042C11.4556 37.4287 11.3487 37.3698 11.2296 37.3319C11.0979 37.2947 10.9553 37.2892 10.8198 37.3162C10.6842 37.3432 10.5616 37.4015 10.4672 37.4838C10.1385 37.7899 10.2816 38.2854 10.3607 38.6437C10.4856 39.2114 10.6302 39.7794 10.8196 40.3359C10.9011 40.5757 11.3687 40.4739 11.2867 40.2331C11.1353 39.7881 11.0178 39.3362 10.9082 38.8838C10.8617 38.692 10.8128 38.4998 10.7808 38.306C10.7492 38.1631 10.7421 38.0174 10.7599 37.873C10.7838 37.7476 10.8906 37.658 11.0557 37.6926C11.2045 37.7239 11.2625 37.8529 11.2932 37.963C11.3712 38.2439 11.4576 38.5234 11.544 38.8028C11.6604 39.179 11.779 39.5549 11.8999 39.9305C11.9776 40.1712 12.4449 40.0692 12.3671 39.8277V39.8281Z" fill="#211715"/>
<path d="M34.4399 30.0333C34.5721 30.1849 34.6838 30.3473 34.773 30.5178C34.8066 30.5759 34.8395 30.6343 34.8716 30.693C34.8888 30.7245 34.9059 30.7561 34.9228 30.7878C34.9295 30.8 34.947 30.833 34.9306 30.8021C34.9416 30.8228 34.9524 30.8436 34.9632 30.8643C35.0395 31.0107 35.1135 31.1579 35.1853 31.3059C35.5419 32.0405 35.8615 32.7868 36.1662 33.536C36.4751 34.2962 36.7675 35.061 37.029 35.8324C37.1322 36.1369 37.2308 36.4425 37.3164 36.7506C37.3489 36.868 37.3796 36.9857 37.4056 37.104C37.4167 37.1543 37.4258 37.2048 37.4359 37.2552C37.4385 37.2688 37.4289 37.2062 37.4339 37.244C37.4352 37.2536 37.4368 37.2631 37.4382 37.2727C37.4473 37.3352 37.4548 37.3979 37.4622 37.4604C37.5275 38.0257 37.5287 38.5946 37.4658 39.16C37.4502 39.4031 37.3863 39.6427 37.2763 39.8697C37.1913 40.0312 37.0697 40.1788 36.9176 40.3052C36.6363 40.5283 36.2784 40.68 35.8892 40.741C35.7856 40.7606 35.6809 40.7759 35.5756 40.7882C35.5469 40.7915 35.5771 40.7882 35.5817 40.7877C35.5701 40.7889 35.5584 40.7901 35.5468 40.7911C35.5235 40.7933 35.5003 40.7955 35.477 40.7974C35.4231 40.8019 35.3691 40.8056 35.3148 40.8085C35.1178 40.8194 34.9203 40.8207 34.7232 40.816C34.4173 40.8086 34.1135 40.781 33.8081 40.7684C33.7071 40.7642 33.607 40.7595 33.5066 40.7504C33.4763 40.7476 33.4454 40.7445 33.4149 40.7415C33.3812 40.7383 33.3846 40.7382 33.4194 40.7421C33.3985 40.7398 33.3776 40.7375 33.3567 40.7351C33.2827 40.7267 33.209 40.7177 33.1357 40.708C32.3005 40.5999 31.4725 40.4521 30.6486 40.2996C29.7009 40.1243 28.7564 39.9357 27.8191 39.7273C27.4362 39.6421 27.0542 39.5538 26.6759 39.4563C26.5292 39.4185 26.3832 39.3794 26.2384 39.3369C26.1809 39.3201 26.1237 39.3026 26.0669 39.2843C26.0531 39.28 26.0396 39.2753 26.0259 39.2709C26.0103 39.266 26.0812 39.2909 26.0399 39.2755C26.0169 39.267 25.9936 39.2594 25.9707 39.2506C25.9372 39.2379 25.9037 39.2248 25.8719 39.2096C25.8599 39.204 25.8485 39.1969 25.8363 39.1918C25.7884 39.1718 25.8852 39.2257 25.8506 39.1999L25.9128 39.388C26.2582 38.4446 26.6531 37.5125 27.0104 36.5719C27.0832 36.3801 27.1585 36.1883 27.2206 35.9941L26.9225 36.1291C27.7211 36.2822 28.5239 36.421 29.3247 36.5656C30.2157 36.7267 31.1091 36.8832 31.9945 37.0633C32.0652 37.0777 32.1358 37.0941 32.2065 37.1077C32.3987 37.1354 32.593 37.1534 32.788 37.1616C33.2072 37.1978 33.6265 37.2372 34.0478 37.2541C34.3593 37.2665 34.3585 36.8798 34.0478 36.8674C33.6813 36.8528 33.3162 36.8206 32.9516 36.7892C32.6981 36.7761 32.4462 36.7482 32.1979 36.7058C31.8288 36.6293 31.4572 36.5602 31.0857 36.4911C30.1179 36.3109 29.1479 36.1379 28.1789 35.963C27.8028 35.8951 27.4263 35.8281 27.0513 35.7563C26.9894 35.7435 26.9237 35.7504 26.8681 35.7756C26.8125 35.8009 26.7713 35.8424 26.7534 35.8914C26.6175 36.3168 26.442 36.7357 26.279 37.1548C26.0695 37.693 25.8568 38.2304 25.6459 38.7682C25.5783 38.9403 25.5092 39.1121 25.4459 39.2852C25.4344 39.3181 25.434 39.3529 25.445 39.386C25.4559 39.4191 25.4778 39.4492 25.5082 39.4733C25.6617 39.5861 25.8834 39.6424 26.0745 39.6988C26.3956 39.7946 26.7239 39.8751 27.0523 39.9532C27.9657 40.1702 28.8893 40.3597 29.8156 40.5387C30.724 40.7144 31.6371 40.881 32.5565 41.0174C33.1222 41.0972 33.6929 41.1522 34.2662 41.182C35.0867 41.2309 35.9647 41.2239 36.7087 40.9077C37.1325 40.7273 37.4719 40.4425 37.6764 40.0957C37.9773 39.5814 37.9886 38.9847 37.9976 38.4262C38.01 37.9708 37.9728 37.5153 37.8866 37.065C37.8335 36.8049 37.7579 36.5476 37.6791 36.2917C37.4498 35.5485 37.1773 34.8135 36.8924 34.0829C36.5814 33.2855 36.2516 32.4932 35.8916 31.7094C35.6315 31.1432 35.3735 30.5596 35.0092 30.0293C34.965 29.9625 34.9146 29.8983 34.8585 29.8373C34.8248 29.7942 34.7717 29.7631 34.7101 29.7502C34.6485 29.7373 34.5831 29.7436 34.5272 29.7679C34.472 29.794 34.4319 29.8364 34.4157 29.886C34.3994 29.9355 34.4082 29.9881 34.4403 30.0325L34.4399 30.0333Z" fill="#211715"/>
<path d="M29.9303 19.7668C30.0561 19.684 30.2178 19.6443 30.3801 19.6562C30.5425 19.6682 30.6923 19.7309 30.797 19.8306C30.9192 19.959 30.9272 20.1424 30.9335 20.2965C30.9415 20.465 30.9279 20.6337 30.8932 20.8001C30.7603 21.4142 30.3516 22.1626 29.4939 22.2795C29.4322 22.2935 29.3799 22.3262 29.3482 22.3707C29.3166 22.4152 29.3081 22.4679 29.3247 22.5173C29.343 22.5661 29.3842 22.6073 29.4397 22.6325C29.4952 22.6576 29.5608 22.6647 29.6226 22.6523C30.4868 22.5345 31.0023 21.8908 31.2476 21.2707C31.3819 20.933 31.4379 20.5785 31.4128 20.2247C31.3871 19.8846 31.2647 19.5634 30.8735 19.3842C30.6712 19.2939 30.4388 19.256 30.2083 19.2755C29.9779 19.2951 29.7607 19.3712 29.5867 19.4934C29.5418 19.5299 29.5166 19.5789 29.5166 19.6301C29.5166 19.6812 29.5418 19.7303 29.5867 19.7668C29.6327 19.8021 29.6941 19.8218 29.758 19.8218C29.8219 19.8218 29.8832 19.8021 29.9293 19.7668H29.9303Z" fill="#211715"/>
<path d="M29.3074 21.9499C29.2929 22.1533 29.2454 22.3543 29.1661 22.548C29.1387 22.6205 29.1087 22.6926 29.0786 22.7645C29.0708 22.7829 29.0633 22.8015 29.0548 22.8198C29.0513 22.8279 29.0469 22.8351 29.0435 22.8429C29.0263 22.8832 29.0577 22.8179 29.0467 22.8373C28.9338 23.033 28.8043 23.2223 28.6592 23.4039C28.2493 23.9452 27.7265 24.4267 27.1133 24.8274C26.7766 25.049 26.3826 25.2084 25.9596 25.2941C25.6558 25.3497 25.7844 25.7226 26.0884 25.6669C26.9541 25.5085 27.6787 25.0099 28.2494 24.4888C28.7303 24.0642 29.1323 23.5868 29.4433 23.0711C29.6492 22.7188 29.7676 22.338 29.7918 21.9497C29.8019 21.7008 29.3175 21.7012 29.3074 21.9497V21.9499Z" fill="#211715"/>
<path d="M18.2743 19.4935C18.1228 19.3865 17.9378 19.3144 17.7389 19.2848C17.5401 19.2553 17.3349 19.2694 17.1453 19.3257C16.7274 19.4575 16.5176 19.737 16.4642 20.0835C16.3623 20.7751 16.5835 21.4725 17.0854 22.0423C17.3692 22.3483 17.7597 22.5872 18.2389 22.6524C18.3008 22.6646 18.3661 22.6574 18.4215 22.6323C18.477 22.6071 18.5182 22.566 18.5368 22.5174C18.5534 22.468 18.5449 22.4153 18.5133 22.3709C18.4816 22.3264 18.4293 22.2936 18.3677 22.2796C17.5098 22.1628 17.1011 21.4143 16.9684 20.8002C16.9336 20.6338 16.9201 20.4651 16.928 20.2966C16.9343 20.1427 16.9424 19.9589 17.0645 19.8308C17.1692 19.731 17.3191 19.6683 17.4814 19.6564C17.6438 19.6444 17.8055 19.6841 17.9312 19.7669C17.9774 19.802 18.0388 19.8216 18.1025 19.8216C18.1663 19.8216 18.2276 19.802 18.2738 19.7669C18.3187 19.7304 18.3439 19.6813 18.3439 19.6302C18.3439 19.5791 18.3187 19.53 18.2738 19.4935H18.2743Z" fill="#211715"/>
<path d="M18.1052 21.8792C18.2417 22.5666 18.5385 23.2276 18.9801 23.8278C19.4835 24.4883 20.2147 25.0858 21.0771 25.4476C21.535 25.64 22.0349 25.7603 22.5497 25.8021C22.6138 25.8017 22.6752 25.7812 22.7205 25.7451C22.7659 25.7089 22.7915 25.6599 22.7919 25.6087C22.7906 25.5578 22.7646 25.5093 22.7195 25.4732C22.6743 25.4372 22.6135 25.4165 22.5497 25.4154C20.7976 25.271 19.4338 24.0185 18.8843 22.7584C18.7469 22.4384 18.6426 22.1099 18.5723 21.7764C18.5548 21.7272 18.5137 21.6854 18.458 21.6602C18.4022 21.6349 18.3363 21.6282 18.2744 21.6414C18.2132 21.656 18.1615 21.6889 18.13 21.7332C18.0984 21.7775 18.0896 21.8298 18.1052 21.8792Z" fill="#211715"/>
<path d="M28.1934 13.7079C27.6524 12.8453 26.464 12.2645 25.295 12.1055C24.1998 11.9568 23.0801 11.9654 21.9887 12.1309C21.4538 12.2141 20.8987 12.3498 20.4768 12.6364C20.4319 12.6729 20.4067 12.722 20.4067 12.7732C20.4067 12.8243 20.4319 12.8734 20.4768 12.9099C20.5229 12.9452 20.5842 12.9649 20.6481 12.9649C20.7119 12.9649 20.7733 12.9452 20.8193 12.9099C20.8359 12.8986 20.8525 12.8874 20.8698 12.8768C20.8386 12.8961 20.8817 12.8705 20.8922 12.8647C20.9336 12.8421 20.9755 12.8204 21.0188 12.8003C21.1065 12.7598 21.1971 12.7236 21.2903 12.6919C21.5017 12.6253 21.7194 12.5724 21.9413 12.5336C22.4566 12.4454 22.9818 12.3991 23.5088 12.3955C24.4777 12.3794 25.4338 12.421 26.3082 12.783C26.9203 13.0364 27.4631 13.4054 27.7753 13.9032C27.9149 14.1258 28.333 13.9302 28.1937 13.7081L28.1934 13.7079Z" fill="#211715"/>
<path d="M19.4594 13.1882C18.4141 13.5749 17.6797 14.3625 17.2428 15.1922C16.7947 16.043 16.6512 16.9955 16.7007 17.9131C16.713 18.4113 16.8228 18.9049 17.0261 19.376C17.0446 19.4247 17.0859 19.4658 17.1413 19.4909C17.1968 19.5161 17.2622 19.5232 17.324 19.511C17.3857 19.497 17.438 19.4643 17.4697 19.4198C17.5013 19.3753 17.5098 19.3227 17.4932 19.2732C17.1243 18.4844 17.1185 17.5817 17.2384 16.7551C17.3609 15.9098 17.712 15.0703 18.3711 14.3924C18.7218 14.0214 19.1789 13.7229 19.704 13.522C19.7591 13.4959 19.799 13.4535 19.8153 13.404C19.8315 13.3545 19.8228 13.302 19.7909 13.2576C19.7575 13.2142 19.7044 13.1827 19.6426 13.1698C19.5809 13.1569 19.5152 13.1635 19.4594 13.1882Z" fill="#211715"/>
<path d="M28.682 14.5516C29.4119 14.8768 29.865 15.4376 30.1689 16.0438C30.4861 16.677 30.5805 17.3769 30.5566 18.0544C30.5447 18.484 30.4669 18.9108 30.325 19.3253C30.2408 19.5653 30.7085 19.6677 30.7921 19.4281C31.0553 18.6408 31.1159 17.819 30.9701 17.0124C30.8666 16.326 30.5663 15.6678 30.0925 15.089C29.7947 14.7297 29.3953 14.4313 28.9265 14.2178C28.6539 14.0964 28.4094 14.4302 28.682 14.5516Z" fill="#211715"/>
<path d="M26.3166 16.3359C25.8092 16.8126 25.1727 17.191 24.4551 17.4425C23.7529 17.6885 23.0141 17.8619 22.2567 17.9585C21.8073 18.0207 21.3516 18.0498 20.8955 18.0454C20.5836 18.0396 20.5837 18.4262 20.8955 18.432C21.3278 18.435 21.7596 18.4095 22.1866 18.3556C22.5884 18.3126 22.9859 18.247 23.3762 18.1592C24.1447 17.9803 24.9224 17.7497 25.586 17.3859C25.9848 17.1656 26.3456 16.9044 26.6592 16.6091C26.7031 16.5722 26.7276 16.5233 26.7276 16.4724C26.7276 16.4215 26.7031 16.3726 26.6592 16.3357C26.6135 16.2999 26.552 16.2798 26.4879 16.2798C26.4238 16.2798 26.3623 16.2999 26.3166 16.3357V16.3359Z" fill="#211715"/>
<path d="M22.2843 17.2363C21.8485 17.5165 21.3773 17.7594 20.8782 17.9613C20.3115 18.2046 19.7268 18.4205 19.1275 18.6077C18.8274 18.7012 18.5234 18.7873 18.2144 18.8606C17.9163 18.9313 18.0428 19.3046 18.3432 19.2334C18.9451 19.0858 19.5338 18.9059 20.1053 18.6949C20.705 18.4828 21.2856 18.2379 21.8431 17.9619C22.1174 17.8262 22.3793 17.6751 22.6267 17.5098C22.6716 17.4733 22.6968 17.4242 22.6968 17.3731C22.6968 17.322 22.6716 17.2729 22.6267 17.2364C22.5807 17.2011 22.5193 17.1814 22.4554 17.1814C22.3916 17.1814 22.3302 17.2011 22.2842 17.2364L22.2843 17.2363Z" fill="#211715"/>
<path d="M26.6632 17.2059C26.8366 17.3427 27.0553 17.4373 27.2936 17.4785C27.4648 17.5121 27.6393 17.5337 27.8151 17.543C27.911 17.5484 28.0225 17.544 28.0817 17.6101C28.1602 17.7099 28.2261 17.8159 28.2782 17.9262C28.3378 18.0342 28.3924 18.1437 28.4473 18.2535C28.5907 18.5396 28.7284 18.8275 28.8713 19.1136C28.89 19.1622 28.9313 19.2032 28.9866 19.2283C29.042 19.2534 29.1073 19.2606 29.1692 19.2486C29.2309 19.2346 29.2833 19.2019 29.3149 19.1574C29.3466 19.1129 29.3551 19.0602 29.3385 19.0108C29.1913 18.717 29.0497 18.4215 28.9024 18.1277C28.7942 17.8813 28.6594 17.6428 28.4995 17.4149C28.4543 17.3551 28.394 17.3034 28.3224 17.2632C28.2507 17.223 28.1694 17.1951 28.0836 17.1813C27.9304 17.1559 27.7726 17.1626 27.6193 17.1394C27.5304 17.1259 27.4418 17.1111 27.3548 17.0911C27.3245 17.0842 27.2948 17.0769 27.2653 17.0687C27.2675 17.0692 27.1932 17.0457 27.2219 17.056C27.1728 17.0384 27.126 17.0168 27.0825 16.9915C27.1228 17.0151 27.0702 16.9827 27.0658 16.9794C27.0456 16.9638 27.0249 16.9483 27.0052 16.9321C26.7878 16.7532 26.4455 17.0267 26.6627 17.2055L26.6632 17.2059Z" fill="#211715"/>
<path d="M14.3867 35.4372C14.4069 35.4379 14.4264 35.4393 14.4464 35.4403C14.3922 35.4374 14.4363 35.4388 14.4511 35.4413C14.4869 35.4474 14.5223 35.4535 14.5573 35.4623C14.5701 35.4655 14.5824 35.4694 14.5951 35.4726C14.6557 35.488 14.554 35.4539 14.6105 35.4777C14.646 35.4919 14.6805 35.5076 14.714 35.5247C14.714 35.5247 14.7658 35.5556 14.7375 35.5376C14.7092 35.5195 14.7585 35.553 14.7585 35.553C14.7828 35.5712 14.8058 35.5904 14.8273 35.6106C14.791 35.5774 14.8324 35.6169 14.8374 35.6231C14.8468 35.6344 14.8556 35.646 14.864 35.6578C14.8724 35.6697 14.8799 35.682 14.8876 35.6943C14.8637 35.6564 14.8942 35.7092 14.8977 35.7185C14.9102 35.749 14.9195 35.7804 14.9253 35.8122C14.9191 35.7768 14.9241 35.8089 14.9241 35.8155C14.9241 35.8346 14.9263 35.8535 14.926 35.8726C14.9239 35.8867 14.923 35.901 14.9233 35.9152C14.9281 35.943 14.9358 35.8749 14.9227 35.92C14.9145 35.9495 14.9044 35.9786 14.8924 36.0072C14.9126 35.9605 14.8802 36.0233 14.8698 36.0372C14.8607 36.049 14.8509 36.0602 14.8408 36.0713C14.8749 36.0339 14.8514 36.0604 14.8408 36.0686C14.8182 36.0858 14.7968 36.1032 14.7728 36.1192C14.7788 36.1152 14.8165 36.0959 14.7811 36.1131C14.7616 36.1224 14.7431 36.1327 14.7232 36.1415C14.7077 36.1484 14.6247 36.1764 14.6881 36.1576C14.6609 36.1657 14.634 36.1737 14.6061 36.1803C14.5782 36.1869 14.5501 36.1927 14.5216 36.1974C14.5045 36.2003 14.4873 36.2025 14.47 36.2055C14.4159 36.2135 14.516 36.203 14.4655 36.2055C14.4033 36.2097 14.3408 36.2109 14.2785 36.2091C14.262 36.2084 14.2087 36.1977 14.1977 36.2035C14.2179 36.1934 14.2482 36.2106 14.205 36.2035C14.1807 36.1993 14.1566 36.1954 14.1328 36.1897C14.116 36.1857 14.0995 36.1811 14.0831 36.1761C14.0466 36.1652 14.1296 36.1985 14.074 36.172C14.0437 36.1578 14.0134 36.1446 13.9847 36.1291C14.0287 36.1525 13.9746 36.1223 13.9685 36.1178C13.9556 36.1085 13.9431 36.0989 13.931 36.0889C13.9189 36.0789 13.9075 36.0685 13.896 36.058C13.9298 36.0888 13.8843 36.044 13.8782 36.0362C13.8687 36.0244 13.8597 36.0121 13.8514 36C13.848 35.995 13.82 35.9446 13.8399 35.9847C13.8267 35.958 13.816 35.9306 13.8078 35.9026C13.8078 35.9037 13.7954 35.8479 13.8007 35.8767C13.8059 35.9054 13.7985 35.848 13.7986 35.8493C13.7976 35.8311 13.7976 35.813 13.7986 35.7949C13.7986 35.7869 13.8087 35.7347 13.8003 35.772C13.8081 35.7361 13.8201 35.7008 13.8361 35.6666C13.8177 35.7059 13.8441 35.6559 13.8476 35.6505C13.8577 35.6357 13.8694 35.6221 13.8803 35.6079C13.9132 35.5649 13.8488 35.6305 13.893 35.5951C13.9075 35.5835 13.9207 35.571 13.9356 35.5599C13.9505 35.5489 13.9659 35.538 13.9816 35.5277C13.9401 35.5537 13.9889 35.5253 13.9987 35.5203C14.0331 35.503 14.0689 35.4877 14.1059 35.4743C14.054 35.4933 14.1149 35.4724 14.1232 35.4701C14.1422 35.4648 14.1615 35.46 14.181 35.456C14.2005 35.4519 14.2199 35.4482 14.2393 35.4448C14.2522 35.4427 14.2653 35.4408 14.2783 35.4391C14.2496 35.4419 14.2445 35.4424 14.2626 35.4408C14.3042 35.4408 14.3454 35.4362 14.3872 35.437C14.4514 35.437 14.513 35.4166 14.5585 35.3803C14.6039 35.3441 14.6294 35.2949 14.6294 35.2436C14.6294 35.1924 14.6039 35.1432 14.5585 35.1069C14.513 35.0707 14.4514 35.0503 14.3872 35.0503C14.1738 35.042 13.9623 35.0859 13.7811 35.1761C13.5998 35.2663 13.4574 35.3986 13.3729 35.5552C13.2952 35.7269 13.2956 35.9149 13.374 36.0864C13.4524 36.2579 13.6038 36.402 13.8018 36.4934C14.1274 36.6399 14.5562 36.6223 14.8908 36.5052C15.0549 36.4484 15.1936 36.3532 15.2886 36.2322C15.3988 36.0762 15.4364 35.8942 15.3949 35.7182C15.3215 35.3235 14.8655 35.0671 14.3872 35.0503C14.3231 35.0507 14.2617 35.0712 14.2164 35.1073C14.1711 35.1435 14.1454 35.1925 14.1449 35.2436C14.1462 35.2945 14.172 35.3431 14.2171 35.3792C14.2621 35.4152 14.3229 35.436 14.3867 35.4372Z" fill="#211715"/>
<path d="M26.258 21.5762C27.099 21.5958 28.0529 21.5805 28.5837 20.9721C28.9847 20.5124 29.0682 19.7023 28.5095 19.2967C28.4132 19.244 28.304 19.208 28.1892 19.191C28.0741 19.163 27.958 19.1382 27.8407 19.1168C27.6135 19.0756 27.3833 19.0457 27.1515 19.0273C26.6843 18.9899 26.2129 19.0045 25.7507 19.0705C25.3565 19.126 24.8733 19.1869 24.6431 19.4769C24.4826 19.6953 24.4095 19.9477 24.4337 20.2001C24.4594 20.5769 24.6568 20.9331 24.9889 21.2017C25.3274 21.4551 25.8031 21.5628 26.2579 21.5766C26.5696 21.5862 26.5691 21.1995 26.2579 21.19C25.8979 21.179 25.4986 21.0917 25.2561 20.8657C25.1313 20.7471 25.0374 20.6097 24.9799 20.4617C24.9225 20.3137 24.9026 20.158 24.9215 20.0038C24.9363 19.9181 24.9647 19.8342 25.0059 19.7541C25.0798 19.6224 25.1381 19.598 25.302 19.5565C25.7536 19.443 26.225 19.388 26.6984 19.3934C27.2355 19.4004 27.7675 19.4769 28.2738 19.6199L28.1669 19.5702C28.5525 19.8858 28.4637 20.4687 28.1459 20.7991C27.7142 21.2479 26.8885 21.2048 26.2579 21.1902C25.9461 21.1824 25.9464 21.569 26.258 21.5762Z" fill="#211715"/>
<path d="M19.7244 19.6192C20.4545 19.4096 21.2374 19.344 22.0061 19.428C22.2021 19.4515 22.3958 19.4853 22.5862 19.5291C22.676 19.5454 22.7639 19.568 22.8486 19.5967C22.875 19.613 22.8991 19.6315 22.9206 19.6519C23.0374 19.7965 23.0943 19.9667 23.0832 20.1385C23.0744 20.3971 22.9606 20.6465 22.759 20.8491C22.5637 21.0424 22.2543 21.1352 21.9558 21.1741C21.6028 21.2118 21.2453 21.2148 20.8914 21.1831C20.5717 21.1598 20.2252 21.0882 19.9836 20.9104C19.5557 20.5963 19.3991 19.9231 19.8312 19.5695C20.049 19.3912 19.7067 19.1176 19.4886 19.2961C18.9609 19.7279 18.9946 20.4785 19.4049 20.9607C19.9208 21.5668 20.864 21.5977 21.6971 21.5771C22.0991 21.5784 22.493 21.4872 22.8317 21.3144C23.1695 21.1131 23.4079 20.8235 23.5052 20.4961C23.5951 20.2337 23.5867 19.9561 23.4811 19.6974C23.4318 19.5663 23.3448 19.4462 23.227 19.3467C23.0772 19.2311 22.8663 19.1896 22.6709 19.1463C21.6566 18.9311 20.5845 18.966 19.5955 19.2464C19.5344 19.2611 19.4828 19.294 19.4512 19.3383C19.4197 19.3825 19.4108 19.4348 19.4262 19.4842C19.4438 19.5334 19.4849 19.5751 19.5407 19.6004C19.5964 19.6256 19.6625 19.6324 19.7244 19.6192Z" fill="#211715"/>
<path d="M23.589 20.2349C23.6395 20.2149 23.5342 20.2505 23.5897 20.2342C23.608 20.2288 23.6267 20.2241 23.6455 20.2199C23.6851 20.2115 23.7252 20.2046 23.7657 20.1993C23.7836 20.1968 23.8182 20.198 23.7492 20.2007C23.7586 20.2007 23.7681 20.1988 23.7774 20.198C23.8014 20.1959 23.8255 20.1942 23.8495 20.193C23.8992 20.1903 23.9491 20.1892 23.9988 20.1894C24.0465 20.1894 24.094 20.1909 24.1414 20.194C24.1659 20.1955 24.1902 20.1973 24.2146 20.1994C24.2323 20.201 24.268 20.209 24.2002 20.1975C24.2093 20.1991 24.2188 20.1996 24.228 20.2008C24.2718 20.2062 24.3153 20.2133 24.3582 20.2221C24.3759 20.2258 24.3933 20.2298 24.4106 20.2342C24.4308 20.2394 24.5024 20.2634 24.4199 20.2349C24.477 20.2595 24.5434 20.2664 24.6065 20.2544C24.6672 20.2407 24.719 20.209 24.7514 20.1658C24.8065 20.0824 24.7886 19.9442 24.6645 19.9014C24.4531 19.8332 24.2267 19.7997 23.9988 19.803C23.7741 19.7946 23.5501 19.8283 23.3446 19.9014C23.2894 19.9274 23.2493 19.9698 23.2331 20.0193C23.2168 20.0688 23.2256 20.1215 23.2577 20.1658C23.2911 20.2092 23.3442 20.2405 23.406 20.2535C23.4677 20.2664 23.5332 20.2598 23.589 20.2352V20.2349Z" fill="#211715"/>
<path d="M29.0631 20.0103C29.0721 20.0071 29.0812 20.004 29.0902 20.0009L29.0323 20.0204C29.1913 19.9652 29.357 19.9234 29.5269 19.8956C29.5877 19.8821 29.6396 19.8504 29.6717 19.807C29.7041 19.7619 29.7129 19.7083 29.6962 19.658C29.6791 19.6096 29.6394 19.5682 29.5851 19.5425C29.5278 19.5184 29.4616 19.5115 29.3984 19.523C29.1984 19.5564 29.0038 19.608 28.8186 19.6767C28.7641 19.7022 28.7242 19.7437 28.7075 19.7923C28.6908 19.8426 28.6996 19.8961 28.732 19.9412C28.7641 19.9846 28.8159 20.0163 28.8767 20.0298L28.9411 20.0368C28.984 20.0368 29.0262 20.0276 29.0633 20.0103H29.0631Z" fill="#211715"/>
<path d="M19.119 19.6767C18.9338 19.608 18.7392 19.5564 18.5392 19.5231C18.4761 19.5107 18.4095 19.5177 18.3525 19.5425C18.325 19.5554 18.3009 19.5724 18.2817 19.5926C18.2625 19.6128 18.2484 19.6359 18.2403 19.6604C18.2323 19.685 18.2303 19.7106 18.2347 19.7358C18.239 19.7609 18.2495 19.7852 18.2656 19.8071C18.2973 19.8507 18.3494 19.8826 18.4104 19.8957C18.5802 19.9234 18.746 19.9652 18.905 20.0204L18.8471 20.001C18.8561 20.004 18.8652 20.0072 18.8742 20.0104C18.9011 20.0243 18.9322 20.0322 18.9642 20.0333C18.9962 20.0391 19.0296 20.0379 19.0608 20.0299C19.1215 20.0162 19.1732 19.9845 19.2055 19.9413C19.2218 19.919 19.2323 19.8943 19.2365 19.8688C19.2407 19.8432 19.2384 19.8172 19.23 19.7923C19.222 19.7681 19.2081 19.7454 19.1891 19.7256C19.17 19.7057 19.1462 19.6891 19.1189 19.6767H19.119Z" fill="#211715"/>
<path d="M23.0125 23.3384C23.3512 23.4779 23.7284 23.5473 24.1094 23.5403C24.4976 23.5382 24.895 23.479 25.2066 23.2853C25.2517 23.2489 25.277 23.1998 25.277 23.1486C25.277 23.0974 25.2517 23.0483 25.2066 23.0119C25.1604 22.9768 25.0991 22.9573 25.0353 22.9573C24.9716 22.9573 24.9102 22.9768 24.8641 23.0119C24.9347 22.9681 24.8691 23.0076 24.8511 23.0168C24.8286 23.0283 24.8054 23.0389 24.7817 23.049C24.7674 23.055 24.6888 23.0826 24.7446 23.0647C24.7131 23.0748 24.6812 23.0841 24.6489 23.0924C24.4628 23.1386 24.2683 23.1594 24.0736 23.1538C23.8877 23.1569 23.7024 23.137 23.5242 23.0947C23.4892 23.0867 23.455 23.0765 23.4204 23.067C23.4091 23.0638 23.3982 23.0599 23.3869 23.0566C23.4475 23.0742 23.3959 23.0597 23.3843 23.0554C23.3413 23.0392 23.2991 23.0224 23.2571 23.0047C23.2014 22.9799 23.1357 22.9733 23.074 22.9862C23.0122 22.9991 22.9591 23.0306 22.9258 23.074C22.894 23.1184 22.8853 23.171 22.9016 23.2205C22.9178 23.2699 22.9577 23.3123 23.0127 23.3386L23.0125 23.3384Z" fill="#211715"/>
<path d="M24.0086 21.253C24.0604 21.4018 24.1017 21.5528 24.1326 21.7053L24.1239 21.6539C24.1276 21.6746 24.1283 21.6955 24.126 21.7163L24.1347 21.6649C24.1329 21.6745 24.13 21.6839 24.126 21.693L24.1505 21.6469C24.147 21.6532 24.1429 21.6592 24.138 21.6649L24.1759 21.6258C24.1704 21.6312 24.1642 21.6361 24.1574 21.6404L24.2065 21.6101C24.1921 21.6173 24.1771 21.6236 24.1616 21.6291L24.2194 21.6096C24.1952 21.6179 24.1698 21.6238 24.1438 21.6272L24.2082 21.6203C24.1847 21.6225 24.161 21.6225 24.1375 21.6203L24.2019 21.6272C24.1752 21.6242 24.1488 21.6192 24.1221 21.6161C24.059 21.6044 23.9927 21.6113 23.9355 21.6356C23.908 21.6484 23.884 21.6654 23.8647 21.6856C23.8455 21.7059 23.8314 21.7289 23.8233 21.7535C23.8153 21.7781 23.8134 21.8037 23.8177 21.8288C23.822 21.854 23.8325 21.8782 23.8486 21.9001C23.8639 21.9219 23.8847 21.941 23.9096 21.9562C23.9345 21.9715 23.9629 21.9825 23.9933 21.9887C24.0499 21.9948 24.1049 22.0064 24.1626 22.0085C24.2473 22.0089 24.3309 21.9933 24.4065 21.9628C24.4536 21.9462 24.4953 21.9213 24.5286 21.89C24.562 21.8587 24.586 21.8218 24.599 21.7821C24.6159 21.7164 24.6149 21.6485 24.5963 21.5831C24.5654 21.4374 24.5232 21.2931 24.4763 21.1501C24.4592 21.1006 24.4182 21.0586 24.3623 21.0333C24.3064 21.008 24.2402 21.0014 24.1783 21.015C24.1163 21.0286 24.0637 21.0614 24.0319 21.106C24.0002 21.1506 23.992 21.2034 24.0091 21.2528L24.0086 21.253Z" fill="#211715"/>
<path d="M20.9653 19.9827C20.8706 20.2281 20.9323 20.7928 21.5151 20.8408C22.2853 20.8372 22.3263 20.1545 22.067 19.8335C21.8547 19.5703 21.2305 19.4609 20.9653 19.9827Z" fill="#211715"/>
<path d="M27.1329 19.9827C27.2276 20.2281 27.1659 20.7928 26.5831 20.8408C25.8129 20.8371 25.772 20.1545 26.0312 19.8334C26.2434 19.5703 26.8677 19.461 27.1329 19.9827Z" fill="#211715"/>
</g>
</g>
<defs>
<clipPath id="clip0_2847_46554">
<rect width="44" height="44" fill="white"/>
</clipPath>
<clipPath id="clip1_2847_46554">
<rect width="44" height="44" rx="22" fill="white"/>
</clipPath>
</defs>
</svg>
